HIERARCHY
ROOT Hips
{
	OFFSET 0.000000 0.000000 0.000000
	CHANNELS 6 Xposition Yposition Zposition Zrotation Yrotation Xrotation 
	JOINT LowerBack
	{
		OFFSET 0.000000 0.000000 0.000000
		CHANNELS 3 Zrotation Yrotation Xrotation
		JOINT Spine
		{
			OFFSET 0.028270 2.035590 -0.193380
			CHANNELS 3 Zrotation Yrotation Xrotation
			JOINT Spine1
			{
				OFFSET 0.056720 2.048850 -0.042750
				CHANNELS 3 Zrotation Yrotation Xrotation
				JOINT Neck
				{
					OFFSET 0.000000 0.000000 0.000000
					CHANNELS 3 Zrotation Yrotation Xrotation
					JOINT Neck1
					{
						OFFSET -0.054170 1.746240 0.172020
						CHANNELS 3 Zrotation Yrotation Xrotation
						JOINT Head
						{
							OFFSET 0.104070 1.761360 -0.123970
							CHANNELS 3 Zrotation Yrotation Xrotation
							End Site
							{
								OFFSET 0.000000 0.000000 0.000000
							}
						}
					}
				}
				JOINT LeftShoulder
				{
					OFFSET 0.000000 0.000000 0.000000
					CHANNELS 3 Zrotation Yrotation Xrotation
					JOINT LeftArm
					{
						OFFSET 3.362410 1.200890 -0.311210
						CHANNELS 3 Zrotation Yrotation Xrotation
						JOINT LeftForeArm
						{
							OFFSET 4.983000 -0.000000 -0.000000
							CHANNELS 3 Zrotation Yrotation Xrotation
							JOINT LeftHand
							{
								OFFSET 3.483560 -0.000000 -0.000000
								CHANNELS 3 Zrotation Yrotation Xrotation
								JOINT LeftFingerBase
								{
									OFFSET 0.000000 0.000000 0.000000
									CHANNELS 3 Zrotation Yrotation Xrotation
									JOINT LeftHandIndex1
									{
										OFFSET 0.715260 -0.000000 -0.000000
										CHANNELS 3 Zrotation Yrotation Xrotation
										End Site
										{
											OFFSET 0.000000 0.000000 0.000000
										}
									}
								}
								JOINT LThumb
								{
									OFFSET 0.000000 0.000000 0.000000
									CHANNELS 3 Zrotation Yrotation Xrotation
									End Site
									{
										OFFSET 0.000000 0.000000 0.000000
									}
								}
							}
						}
					}
				}
				JOINT RightShoulder
				{
					OFFSET 0.000000 0.000000 0.000000
					CHANNELS 3 Zrotation Yrotation Xrotation
					JOINT RightArm
					{
						OFFSET -3.136600 1.374050 -0.404650
						CHANNELS 3 Zrotation Yrotation Xrotation
						JOINT RightForeArm
						{
							OFFSET -5.241900 -0.000000 -0.000000
							CHANNELS 3 Zrotation Yrotation Xrotation
							JOINT RightHand
							{
								OFFSET -3.444170 -0.000000 -0.000000
								CHANNELS 3 Zrotation Yrotation Xrotation
								JOINT RightFingerBase
								{
									OFFSET 0.000000 0.000000 0.000000
									CHANNELS 3 Zrotation Yrotation Xrotation
									JOINT RightHandIndex1
									{
										OFFSET -0.622530 -0.000000 -0.000000
										CHANNELS 3 Zrotation Yrotation Xrotation
										End Site
										{
											OFFSET 0.000000 0.000000 0.000000
										}
									}
								}
								JOINT RThumb
								{
									OFFSET 0.000000 0.000000 0.000000
									CHANNELS 3 Zrotation Yrotation Xrotation
									End Site
									{
										OFFSET 0.000000 0.000000 0.000000
									}
								}
							}
						}
					}
				}
			}
		}
	}
}
}
MOTION
Frames: 15
Frame Time: 0.008333
6.176449 20.694588 0.864996 25.160759 -81.942381 -9.170586 -3.924929 -1.395795 -8.952288 -0.959220 -1.220192 -5.027400 -2.563639 -1.388684 -2.119721 6.906976 -8.825536 -3.795967 0.267457 -0.055931 1.175877 0.000000 0.000000 0.000000 21.995933 2.728119 -3.366949 -13.638011 -25.224026 -40.452475 177.162577 -64.074376 179.553207 41.893818 -34.675903 -14.420891 -0.575765 1.433726 -0.000000 0.000000 0.000000 0.000000 0.000000 0.000000 0.000000 -8.732256 -5.745781 -0.736168 18.713070 13.116589 -47.205143 -178.610111 60.593791 179.753393 -40.099946 35.351378 -13.947476 0.655402 -1.217193 -0.000000 0.000000 0.000000 0.000000 0.000000 0.000000 0.000000 
5.985039 20.809974 0.846120 25.071612 -81.956453 -9.557995 -4.009639 -1.395577 -8.613845 -0.962592 -1.208240 -4.931148 -2.448203 -1.378945 -1.988295 6.967709 -9.239859 -3.865852 0.383977 -0.046347 1.155153 0.000000 0.000000 0.000000 22.301789 3.111017 -3.440854 -12.903187 -24.425250 -42.216220 177.016828 -62.538789 179.554736 42.880502 -35.034522 -14.950704 -0.603983 1.445594 0.000000 0.000000 0.000000 0.000000 0.000000 0.000000 0.000000 -9.245049 -6.322200 -0.744170 17.844732 12.368227 -48.608612 -178.552590 58.874290 179.756429 -41.198797 35.799734 -14.558931 0.694585 -1.243611 -0.000000 0.000000 0.000000 0.000000 0.000000 0.000000 0.000000 
5.795309 20.915571 0.827398 24.921466 -82.008398 -9.848683 -4.072802 -1.389040 -8.277211 -0.963207 -1.192290 -4.831462 -2.340467 -1.364450 -1.851585 7.038183 -9.684193 -3.959409 0.490993 -0.036867 1.127100 0.000000 0.000000 0.000000 22.583902 3.550648 -3.507197 -12.249492 -23.709629 -43.908226 176.878233 -61.075286 179.556730 43.846181 -35.293759 -15.437809 -0.633473 1.455950 -0.000000 0.000000 0.000000 0.000000 0.000000 0.000000 0.000000 -9.681665 -6.933810 -0.748602 17.010866 11.707453 -49.883439 -178.505028 57.278655 179.760136 -42.226632 36.260697 -15.162193 0.732441 -1.270408 -0.000000 0.000000 0.000000 0.000000 0.000000 0.000000 0.000000 
5.606300 21.011540 0.809253 24.710031 -82.103658 -10.035320 -4.112413 -1.373501 -7.961940 -0.960666 -1.169812 -4.732929 -2.241063 -1.342872 -1.711945 7.117323 -10.144635 -4.072306 0.586916 -0.027703 1.093232 0.000000 0.000000 0.000000 22.840820 4.035009 -3.565452 -11.672059 -23.088901 -45.492940 176.749815 -59.698554 179.559231 44.736086 -35.473851 -15.867101 -0.662988 1.465292 -0.000000 0.000000 0.000000 0.000000 0.000000 0.000000 0.000000 -10.035800 -7.560502 -0.749182 16.198536 11.126903 -51.010236 -178.469367 55.808143 179.764498 -43.130251 36.744261 -15.739863 0.767789 -1.297995 -0.000000 0.000000 0.000000 0.000000 0.000000 0.000000 0.000000 
5.417903 21.098352 0.792214 24.353665 -82.236997 -10.050142 -4.118671 -1.349211 -7.665720 -0.952658 -1.141530 -4.636109 -2.150625 -1.314800 -1.573764 7.200602 -10.602839 -4.199966 0.671143 -0.018996 1.054965 0.000000 0.000000 0.000000 23.063997 4.549174 -3.614482 -11.156612 -22.568723 -46.939289 176.634246 -58.419771 179.562178 45.513236 -35.597538 -16.231577 -0.691544 1.474163 -0.000000 0.000000 0.000000 0.000000 0.000000 0.000000 0.000000 -10.311351 -8.177701 -0.745329 15.404940 10.609796 -51.974264 -178.446463 54.463550 179.769371 -43.868566 37.253343 -16.275249 0.799596 -1.326612 -0.000000 0.000000 0.000000 0.000000 0.000000 0.000000 0.000000 
5.228022 21.176239 0.776636 24.005391 -82.415799 -9.993786 -4.107675 -1.313177 -7.449698 -0.942303 -1.103736 -4.553784 -2.067648 -1.277526 -1.435293 7.285891 -11.046055 -4.337215 0.742842 -0.010952 1.014379 0.000000 0.000000 0.000000 23.272487 5.062731 -3.652750 -10.728065 -22.114756 -48.213378 176.533053 -57.223345 179.565637 46.142089 -35.714331 -16.538831 -0.717999 1.483781 -0.000000 0.000000 0.000000 0.000000 0.000000 0.000000 0.000000 -10.510922 -8.766570 -0.736341 14.624684 10.142867 -52.761858 -178.436706 53.241187 179.774634 -44.414557 37.795914 -16.758045 0.827054 -1.356568 -0.000000 0.000000 0.000000 0.000000 0.000000 0.000000 0.000000 
5.037153 21.245987 0.763003 23.463426 -82.613921 -9.706534 -4.061363 -1.271547 -7.279358 -0.925339 -1.063350 -4.480169 -1.993293 -1.237334 -1.302320 7.367494 -11.454303 -4.479501 0.802414 -0.003633 0.972588 0.000000 0.000000 0.000000 23.450136 5.560158 -3.679276 -10.362906 -21.727699 -49.294771 176.446602 -56.107402 179.569417 46.624538 -35.835896 -16.793863 -0.742239 1.494632 -0.000000 0.000000 0.000000 0.000000 0.000000 0.000000 0.000000 -10.648973 -9.304202 -0.721428 13.871480 9.699153 -53.367659 -178.438838 52.130944 179.780027 -44.761399 38.359344 -17.176360 0.849928 -1.387746 -0.000000 0.000000 0.000000 0.000000 0.000000 0.000000 0.000000 
4.844675 21.307889 0.751604 22.703776 -82.814217 -9.154643 -3.980057 -1.228170 -7.165589 -0.901403 -1.024214 -4.418021 -1.927378 -1.198235 -1.175567 7.441368 -11.813945 -4.622732 0.850291 0.002889 0.930897 0.000000 0.000000 0.000000 23.596079 6.018575 -3.692480 -10.062921 -21.380976 -50.172460 176.375107 -55.056184 179.573481 46.963476 -35.987020 -17.009172 -0.764133 1.507471 -0.000000 0.000000 0.000000 0.000000 0.000000 0.000000 0.000000 -10.740049 -9.775526 -0.700026 13.161590 9.259608 -53.793684 -178.451380 51.118748 179.785387 -44.915143 38.938181 -17.526293 0.868215 -1.420099 -0.000000 0.000000 0.000000 0.000000 0.000000 0.000000 0.000000 
4.649932 21.362715 0.742348 21.746194 -82.998817 -8.348671 -3.874943 -1.187479 -7.122739 -0.872754 -0.990013 -4.370768 -1.870002 -1.164209 -1.055016 7.509481 -12.118016 -4.762802 0.886329 0.008497 0.890624 0.000000 0.000000 0.000000 23.723523 6.416925 -3.692692 -9.845001 -21.046027 -50.832165 176.316872 -54.052687 179.577731 47.172806 -36.186954 -17.199259 -0.783624 1.522878 -0.000000 0.000000 0.000000 0.000000 0.000000 0.000000 0.000000 -10.788574 -10.173321 -0.672859 12.508416 8.810948 -54.040190 -178.471944 50.195683 179.790537 -44.901619 39.520375 -17.809338 0.882231 -1.453190 -0.000000 0.000000 0.000000 0.000000 0.000000 0.000000 0.000000 
4.453177 21.410656 0.735121 20.527898 -83.140539 -7.237634 -3.744065 -1.156343 -7.131376 -0.838787 -0.967584 -4.334947 -1.822159 -1.141819 -0.941864 7.569730 -12.362938 -4.897818 0.912198 0.013271 0.852129 0.000000 0.000000 0.000000 23.823043 6.748466 -3.679984 -9.697142 -20.714429 -51.285981 176.271112 -53.090164 179.582090 47.278548 -36.437607 -17.374722 -0.801127 1.540949 -0.000000 0.000000 0.000000 0.000000 0.000000 0.000000 0.000000 -10.812128 -10.496969 -0.640957 11.942904 8.349026 -54.122090 -178.498396 49.347879 179.795365 -44.751670 40.096797 -18.031194 0.892483 -1.486666 -0.000000 0.000000 0.000000 0.000000 0.000000 0.000000 0.000000 
4.253938 21.451961 0.729187 19.161525 -83.226264 -5.925529 -3.608222 -1.138340 -7.199926 -0.804350 -0.959160 -4.313099 -1.784446 -1.133613 -0.836315 7.628869 -12.547781 -5.023683 0.927984 0.017115 0.816639 0.000000 0.000000 0.000000 23.918629 6.988969 -3.654707 -9.641348 -20.342561 -51.537277 176.235028 -52.154395 179.586457 47.306721 -36.736039 -17.544070 -0.816969 1.561573 -0.000000 0.000000 0.000000 0.000000 0.000000 0.000000 0.000000 -10.810623 -10.745331 -0.605226 11.482610 7.867810 -54.049434 -178.528165 48.568540 179.799777 -44.510519 40.654875 -18.203052 0.899715 -1.519837 -0.000000 0.000000 0.000000 0.000000 0.000000 0.000000 0.000000 
4.053534 21.486825 0.723991 17.630773 -83.234180 -4.426882 -3.467291 -1.139700 -7.282774 -0.769636 -0.970704 -4.295862 -1.759006 -1.145050 -0.738648 7.689934 -12.687717 -5.143223 0.936848 0.020330 0.782908 0.000000 0.000000 0.000000 23.992225 7.174567 -3.621658 -9.652214 -19.981469 -51.613572 176.208731 -51.268681 179.590711 47.285231 -37.081877 -17.717301 -0.831077 1.584286 -0.000000 0.000000 0.000000 0.000000 0.000000 0.000000 0.000000 -10.796487 -10.942158 -0.570357 11.164067 7.400735 -53.847805 -178.560191 47.853313 179.803755 -44.212802 41.195664 -18.339011 0.904350 -1.552312 -0.000000 0.000000 0.000000 0.000000 0.000000 0.000000 0.000000 
3.850568 21.515158 0.718379 16.234726 -83.177930 -3.002473 -3.356835 -1.156572 -7.422455 -0.743438 -0.996541 -4.293632 -1.746119 -1.171394 -0.649093 7.763219 -12.780502 -5.249514 0.936998 0.022614 0.753313 0.000000 0.000000 0.000000 24.088140 7.247297 -3.578656 -9.765347 -19.531148 -51.523727 176.187315 -50.402176 179.594771 47.240282 -37.443673 -17.889521 -0.844427 1.608388 -0.000000 0.000000 0.000000 0.000000 0.000000 0.000000 0.000000 -10.757894 -11.078247 -0.534293 10.985115 6.929872 -53.528639 -178.592532 47.195017 179.807300 -43.908093 41.704305 -18.453453 0.907528 -1.583364 -0.000000 0.000000 0.000000 0.000000 0.000000 0.000000 0.000000 
3.647229 21.536868 0.711945 14.921345 -83.047104 -1.652229 -3.268108 -1.193213 -7.550204 -0.724202 -1.041107 -4.292097 -1.748327 -1.216275 -0.569183 7.852471 -12.845801 -5.347920 0.931120 0.024299 0.725715 0.000000 0.000000 0.000000 24.182504 7.260363 -3.531003 -9.952076 -19.065295 -51.301401 176.172532 -49.592190 179.598547 47.187831 -37.820297 -18.065929 -0.856629 1.633167 -0.000000 0.000000 0.000000 0.000000 0.000000 0.000000 0.000000 -10.699976 -11.183120 -0.502678 10.969265 6.505735 -53.125005 -178.625806 46.596824 179.810474 -43.617355 42.186643 -18.558581 0.909476 -1.612671 -0.000000 0.000000 0.000000 0.000000 0.000000 0.000000 0.000000 
3.443605 21.552623 0.704234 13.802770 -82.856543 -0.483512 -3.209625 -1.246060 -7.666162 -0.714547 -1.100493 -4.292111 -1.766643 -1.275943 -0.499941 7.962017 -12.888344 -5.437304 0.917883 0.025255 0.700510 0.000000 0.000000 0.000000 24.285469 7.197031 -3.477703 -10.217504 -18.548745 -50.967740 176.162832 -48.828964 179.602019 47.139497 -38.186107 -18.238631 -0.868360 1.657959 -0.000000 0.000000 0.000000 0.000000 0.000000 0.000000 0.000000 -10.613831 -11.259792 -0.475320 11.106036 6.137040 -52.658973 -178.660358 46.056672 179.813361 -43.363313 42.635657 -18.661589 0.910916 -1.639820 -0.000000 0.000000 0.000000 0.000000 0.000000 0.000000 0.000000 
